<?xml version="1.0" encoding="utf-8"?>
<!-- Generator: Adobe Illustrator 23.0.2, SVG Export Plug-In . SVG Version: 6.00 Build 0)  -->
<svg version="1.1" id="Layer_1" xmlns="http://www.w3.org/2000/svg" xmlns:xlink="http://www.w3.org/1999/xlink" x="0px" y="0px"
	 viewBox="0 0 255.8 136.3" style="enable-background:new 0 0 255.8 136.3;" xml:space="preserve">
<style type="text/css">
	.st0{fill:#FFFFFF;}
	.st1{fill-rule:evenodd;clip-rule:evenodd;fill:#FFFFFF;}
	.st2{opacity:0.3;fill:#FFFFFF;enable-background:new    ;}
</style>
<g>
	<g>
		<g>
			<path class="st0" d="M113.9,54.9h-17l2-11.8H151l-2,11.8h-17l-6.9,39.5V105h-19.9L113.9,54.9z"/>
			<path class="st0" d="M169.7,54.9h-17l2-11.8h52.1l-2,11.8h-17l-6.9,39.5V105H161L169.7,54.9z"/>
			<path class="st0" d="M202.7,74c2.4-17.7,15.7-31.9,32.8-31.9c10.6,0,16.9,4.4,20.3,11.8l-9.3,8.2c-3-3.8-5.4-5.6-10.2-5.6
				c-6.9,0-13.7,6.1-15.6,17.6c-1.9,11.5,2.7,17.5,9.6,17.5c4.7,0,8.4-2.5,11.9-5.6l8.4,8.4c-4.9,6.8-13,11.6-23.6,11.6
				C209.9,105.9,200.3,91.7,202.7,74z"/>
		</g>
	</g>
	<g>
		<path class="st0" d="M74.4,81.2c-2.1,0-4.1-1-5.9-2.6c-0.8-0.8-1.6-1.7-2.3-2.7c10.4-0.8,20.4-6.4,26.5-15.4l6.2,2.5
			C93.2,72.2,84.3,78.6,74.4,81.2z"/>
		<path class="st0" d="M97.6,33.2C95.1,22.7,87.7,13.5,77,9.1c-17.7-7.2-38,1.3-45.2,19c-1.3,3.2-2.1,6.5-2.4,9.8
			c-2.2,0.6-3.5-0.1-4.3-1.3c0-0.1-0.1-0.1-0.1-0.2l-0.1-0.1c-1.2-2.3-0.8-5.9-0.8-5.9l0,0c0.4-1.6,0.9-3.1,1.6-4.7
			C34.2,4.6,58.3-5.5,79.4,3.1c14.3,5.8,23.6,18.8,25.4,33.1L97.6,33.2z"/>
		<path class="st0" d="M24.1,30.4L24.1,30.4L24.1,30.4z"/>
		<path class="st0" d="M87.4,66.8l6.6,2.7c-5.3,5.7-12.2,9.7-19.6,11.7c-3.1,0.3-6-2.1-8.2-5.2C73.9,75.4,81.6,72,87.4,66.8z"/>
		<path class="st0" d="M39.7,16.5c-3.3,3.2-6,7.2-7.9,11.7c-1.3,3.2-2.1,6.5-2.4,9.8c-6.5,1.5-5.3-7.6-5.3-7.6l0,0
			c0.4-1.6,0.9-3.1,1.6-4.7c1.8-4.5,4.4-8.5,7.4-11.9L39.7,16.5z"/>
		<path class="st1" d="M34.1,47.7c-0.9,2.7,0.4,5.6,3,6.5s5.4-0.7,6.3-3.4c0.9-2.7-0.4-5.6-3-6.5C37.8,43.4,35,44.9,34.1,47.7z"/>
		<path class="st0" d="M24.1,30.4c0,0-1.3,10.1,6.2,7.3c5.3-2,16.3-11.3,20.7-4.7c5.2,7.8,9.2,48.4,23.4,48.3c0,0-10.4,3.8-18.1-8.3
			c-5.1-8.1-12-28.7-12-28.7s-2.4-5.1-9.2-1.4C26.5,47.5,21.6,41.7,24.1,30.4z"/>
		<path class="st2" d="M74.4,81.2C60.2,81.3,56.2,40.8,51,32.9c-4.3-6.5-15.4,2.7-20.7,4.7c-6.8,2.6-6.3-5.7-6.2-7.1
			c0.1-0.3,0.1-0.5,0.2-0.8c0,0-0.3,9.7,6.4,6.8c5.2-2.3,14.9-11.3,21.4-6.8c8,5.7,5.8,47.4,22.7,51.3
			C74.7,81.1,74.6,81.1,74.4,81.2z"/>
		<path class="st0" d="M24.1,30.4L24.1,30.4L24.1,30.4z"/>
		<path class="st0" d="M97.6,33.2c-2.4-9.9-9.1-18.7-18.9-23.3l2.5-6.1c13.3,6.1,21.9,18.6,23.6,32.3L97.6,33.2z"/>
	</g>
	<path class="st0" d="M29.6,51.1c0,0,2.1,5.6,1.6,8.2s-4,29.8-25.5,33.2s25,22.1,25,22.1S8.3,103.5,9,99
		C9.7,94.4,44.3,85.3,29.6,51.1z"/>
	<path class="st0" d="M32.1,113c0,0-3.4-26.4,19.3-34.1C51.4,78.9,35.6,87.8,32.1,113z"/>
	<g>
		<path class="st0" d="M33.7,127.6l1-6.1h-1.9L33,120h1.9l0.5-3.2h1.7l-0.5,3.2h2.9l-0.2,1.5h-2.9l-1,6.2c-0.3,1.9,0.1,2.6,1.4,2.6
			c0.4,0,1.1-0.2,1.4-0.3l-0.2,1.1c-0.5,0.4-1.2,0.6-1.9,0.6C34,131.7,33.3,130,33.7,127.6z"/>
		<path class="st0" d="M42.1,125.7c-0.5,2.2,0.5,4.5,3.1,4.5c1.2,0,2.1-0.4,3.1-1.2l0.7,1.1c-1,1-2.5,1.7-4.1,1.7
			c-3.3,0-5.1-2.7-4.6-5.9c0.4-3.3,2.9-6,5.8-6c2.7,0,4.5,2.3,3.7,5.9h-7.7V125.7z M46.1,121.4c-1.4,0-2.8,0.8-3.6,2.9h5.9
			C48.7,122.5,47.9,121.4,46.1,121.4z"/>
		<path class="st0" d="M51.5,134.3l0.9-1c0.8,0.9,1.6,1.5,3.1,1.5c1.6,0,3-1.1,3.5-3.8l0.2-1.1c-0.7,0.9-2,1.8-3.4,1.8
			c-2.7,0-4.2-2.7-3.8-6s2.8-6,5.5-6c1.4,0,2.6,0.8,3.2,2l0.9-1.7h0.9l-1.7,10.8c-0.6,3.5-2.5,5.5-5.2,5.5
			C53.7,136.3,52.2,135.4,51.5,134.3z M59.9,125.8c0.4-2.5-0.6-4.4-2.4-4.4c-1.8,0-3.4,1.9-3.8,4.4s0.6,4.4,2.4,4.4
			C57.9,130.1,59.5,128.2,59.9,125.8z"/>
		<path class="st0" d="M66,125.7c-0.5,2.2,0.5,4.5,3.1,4.5c1.2,0,2.1-0.4,3.1-1.2l0.8,1c-1,1-2.5,1.7-4.1,1.7
			c-3.3,0-5.1-2.7-4.6-5.9c0.4-3.3,2.9-6,5.8-6c2.7,0,4.5,2.3,3.7,5.9H66z M70,121.4c-1.4,0-2.8,0.8-3.6,2.9h5.9
			C72.6,122.5,71.7,121.4,70,121.4z"/>
		<path class="st0" d="M78,116.1v-1.6h2l-2.4,15.4v1.6h-2L78,116.1z"/>
		<path class="st0" d="M80.2,130.5l0.6-1.4c1.1,0.9,2.3,1.1,3.1,1.1c1.2,0,2.1-0.5,2.2-1.6c0.1-1-0.4-1.5-2.2-2.3
			c-1.8-0.8-2.5-1.9-2.4-3.3c0.2-2,1.8-3.2,3.9-3.2c1.2,0,2.4,0.4,3.3,1.1l-0.5,1.4c-0.7-0.6-1.9-1-2.8-1c-1.4,0-2,0.7-2.1,1.6
			c-0.1,0.8,0.4,1.6,1.5,2c1.7,0.7,3.4,1.6,3.2,3.6c-0.3,2.4-2,3.4-4,3.4C82.7,131.8,81.2,131.3,80.2,130.5z"/>
		<path class="st0" d="M92.1,125.7c-0.5,2.2,0.5,4.5,3.1,4.5c1.2,0,2.1-0.4,3.1-1.2l0.7,1.1c-1,1-2.5,1.7-4.1,1.7
			c-3.3,0-5.1-2.7-4.6-5.9c0.4-3.3,2.9-6,5.8-6c2.7,0,4.5,2.3,3.7,5.9h-7.7V125.7z M96.1,121.4c-1.4,0-2.8,0.8-3.6,2.9h5.9
			C98.7,122.5,97.8,121.4,96.1,121.4z"/>
		<path class="st0" d="M107.6,127.6l1-6.1h-1.9l0.2-1.5h1.9l0.5-3.2h1.7l-0.5,3.2h2.9l-0.2,1.5h-2.9l-1,6.2
			c-0.3,1.9,0.1,2.6,1.4,2.6c0.4,0,1.1-0.2,1.4-0.3l-0.2,1.1c-0.5,0.4-1.2,0.6-1.9,0.6C107.9,131.7,107.2,130,107.6,127.6z"/>
		<path class="st0" d="M123.2,131.5H122l-0.2-1.7c-0.9,1.2-2.3,2-3.7,2c-2.7,0-4.2-2.7-3.8-6c0.4-3.3,2.8-6,5.5-6
			c1.4,0,2.6,0.8,3.2,2l0.9-1.7h0.9l-1.6,9.8C123.2,129.9,123.2,131.5,123.2,131.5z M122.2,125.8c0.4-2.5-0.6-4.4-2.4-4.4
			s-3.4,1.9-3.8,4.4s0.6,4.4,2.4,4.4C120.2,130.1,121.8,128.2,122.2,125.8z"/>
		<path class="st0" d="M134.8,116.3c-0.4-0.2-0.9-0.5-1.5-0.5c-1.5,0-2.3,0.9-2.6,3l-0.2,1.2h2.9l-0.2,1.5h-2.9l-2.3,14.8h-1.7
			l2.3-14.8h-1.9l0.2-1.5h1.9l0.2-1.2c0.4-2.8,2-4.4,3.9-4.4c1.1,0,1.9,0.2,2.4,0.6L134.8,116.3z"/>
		<path class="st0" d="M135.2,125.7c-0.5,2.2,0.5,4.5,3.1,4.5c1.2,0,2.1-0.4,3.1-1.2l0.7,1.1c-1,1-2.5,1.7-4.1,1.7
			c-3.3,0-5.1-2.7-4.6-5.9c0.4-3.3,2.9-6,5.8-6c2.7,0,4.5,2.3,3.7,5.9h-7.7V125.7z M139.2,121.4c-1.4,0-2.8,0.8-3.6,2.9h5.9
			C141.8,122.5,140.9,121.4,139.2,121.4z"/>
		<path class="st0" d="M147.2,116.1v-1.6h2l-2.4,15.4v1.6h-2L147.2,116.1z"/>
		<path class="st0" d="M150.9,127.6l1-6.1H150l0.2-1.5h1.9l0.5-3.2h1.7l-0.5,3.2h2.9l-0.2,1.5h-2.9l-1,6.2c-0.3,1.9,0.1,2.6,1.4,2.6
			c0.4,0,1.1-0.2,1.4-0.3l-0.2,1.1c-0.5,0.4-1.2,0.6-1.9,0.6C151.3,131.7,150.5,130,150.9,127.6z"/>
		<path class="st0" d="M159.4,125.7c-0.5,2.2,0.5,4.5,3.1,4.5c1.2,0,2.1-0.4,3.1-1.2l0.7,1.1c-1,1-2.5,1.7-4.1,1.7
			c-3.3,0-5.1-2.7-4.6-5.9c0.4-3.3,2.9-6,5.8-6c2.7,0,4.5,2.3,3.7,5.9h-7.7V125.7z M163.4,121.4c-1.4,0-2.8,0.8-3.6,2.9h5.9
			C165.9,122.5,165.1,121.4,163.4,121.4z"/>
		<path class="st0" d="M170.5,120h1.2l0.3,1.7c0.9-1.1,2.3-1.9,3.7-1.9c2.4,0,3.7,1.7,3.2,4.6l-0.9,5.4v1.6h-2l1.1-7
			c0.3-2.1-0.3-3.1-1.9-3.1c-1.5,0-3.2,1.4-3.4,2.9l-1.1,7.2H169l1.6-9.8V120H170.5z"/>
		<path class="st0" d="M182.5,120h1.2l0.3,1.7c0.9-1.1,2.3-1.9,3.7-1.9c2.4,0,3.7,1.7,3.2,4.6l-0.9,5.4v1.6h-2l1.1-7
			c0.3-2.1-0.3-3.1-1.9-3.1c-1.5,0-3.2,1.4-3.4,2.9l-1.1,7.2H181l1.6-9.8V120H182.5z"/>
		<path class="st0" d="M194.6,120h2l-1.6,9.8v1.6h-2l1.6-9.8V120z M197.5,116.1c-0.1,0.6-0.6,1.1-1.3,1.1s-1.1-0.5-1-1.1
			s0.6-1.1,1.3-1.1C197,114.9,197.5,115.4,197.5,116.1z"/>
		<path class="st0" d="M197.7,130.5l0.6-1.4c1.1,0.9,2.3,1.1,3.1,1.1c1.2,0,2.1-0.5,2.2-1.6c0.1-1-0.4-1.5-2.2-2.3s-2.5-1.9-2.4-3.3
			c0.2-2,1.8-3.2,3.9-3.2c1.2,0,2.4,0.4,3.3,1.1l-0.5,1.4c-0.7-0.6-1.9-1-2.8-1c-1.4,0-2,0.7-2.1,1.6c-0.1,0.8,0.4,1.6,1.5,2
			c1.7,0.7,3.4,1.6,3.2,3.6c-0.3,2.4-2,3.4-4,3.4C200.2,131.8,198.7,131.3,197.7,130.5z"/>
		<path class="st0" d="M212.6,125.8c0.4-3.3,3-6,5.7-6c1.6,0,2.8,0.7,3.5,1.7l-0.8,1.1c-0.7-0.8-1.3-1.2-2.6-1.2
			c-1.7,0-3.6,1.6-4,4.4c-0.4,2.7,0.9,4.4,2.8,4.4c1.2,0,1.8-0.5,2.8-1.2l0.6,1.1c-0.9,1.1-2.3,1.7-3.7,1.7
			C213.8,131.7,212.2,129,212.6,125.8z"/>
		<path class="st0" d="M225.1,116.1v-1.6h2l-2.4,15.4v1.6h-2L225.1,116.1z"/>
		<path class="st0" d="M235.2,129.8c-0.9,1.1-2.3,1.9-3.7,1.9c-2.4,0-3.6-1.7-3.2-4.6l0.9-5.4V120h2l-1.1,7
			c-0.3,2.1,0.3,3.1,1.9,3.1c1.5,0,3.2-1.4,3.4-2.9l1.1-7.2h1.7l-1.6,9.8v1.6h-1.2L235.2,129.8z"/>
		<path class="st0" d="M242.2,114.4h2l-1.1,7.1c0.7-0.9,2-1.8,3.4-1.8c2.7,0,4.3,2.7,3.8,6s-2.8,6-5.5,6c-1.4,0-2.6-0.8-3.2-2
			l-0.9,1.7h-0.9l2.4-15.4V114.4z M242.3,125.8c-0.4,2.5,0.6,4.4,2.4,4.4c1.8,0,3.4-1.9,3.8-4.4c0.4-2.5-0.6-4.4-2.4-4.4
			C244.3,121.4,242.7,123.3,242.3,125.8z"/>
	</g>
</g>
</svg>
